<?xml version="1.0" standalone="no"?><!DOCTYPE svg PUBLIC "-//W3C//DTD SVG 1.1//EN" "http://www.w3.org/Graphics/SVG/1.1/DTD/svg11.dtd"><svg t="1760367231803" class="icon" viewBox="0 0 1024 1024" version="1.1" xmlns="http://www.w3.org/2000/svg" p-id="18700" xmlns:xlink="http://www.w3.org/1999/xlink" width="32" height="32"><path d="M512 512m-414 0a414 414 0 1 0 828 0 414 414 0 1 0-828 0Z" fill="#F0C48A" p-id="18701"></path><path d="M352.018 226.496h372.72v518.254h-372.72z" fill="#FD919E" p-id="18702"></path><path d="M724.738 754.196h-372.72a9.45 9.45 0 0 1-9.448-9.448V226.496a9.448 9.448 0 0 1 9.448-9.448h372.72a9.45 9.45 0 0 1 9.448 9.448v518.254a9.448 9.448 0 0 1-9.448 9.446z m-363.274-18.894h353.826v-499.36H361.464v499.36z" fill="#4C4372" p-id="18703"></path><path d="M299.262 279.25h372.72v518.254h-372.72z" fill="#FFFFFF" p-id="18704"></path><path d="M614.738 279.25h57.244v518.254h-57.244z" fill="#D3E6F8" p-id="18705"></path><path d="M671.982 806.952h-372.72a9.45 9.45 0 0 1-9.448-9.448V279.25a9.448 9.448 0 0 1 9.448-9.448h372.72a9.45 9.45 0 0 1 9.448 9.448v518.254a9.448 9.448 0 0 1-9.448 9.448z m-363.272-18.894h353.826v-499.36H308.71v499.36z" fill="#4C4372" p-id="18706"></path><path d="M394.05 340.776a7.426 7.426 0 0 1 7.482 7.482v3.828c10.268 1.218 18.968 4.526 26.972 9.572 2.784 1.566 5.22 4.176 5.22 8.352 0 5.394-4.35 9.572-9.744 9.572-1.74 0-3.48-0.522-5.22-1.566-6.09-3.654-12.008-6.266-17.924-7.658v33.412c26.45 6.614 37.762 17.228 37.762 35.848 0 19.142-14.966 31.846-37.066 33.934v10.44a7.426 7.426 0 0 1-7.482 7.482c-4.176 0-7.658-3.306-7.658-7.482v-10.788c-13.052-1.392-25.06-6.09-35.674-13.574-2.958-1.914-4.698-4.698-4.698-8.352 0-5.394 4.176-9.572 9.572-9.572 2.088 0 4.176 0.696 5.742 1.914 8.178 5.918 16.184 9.92 25.756 11.66v-34.282c-25.408-6.614-37.24-16.184-37.24-35.848 0-18.62 14.792-31.498 36.544-33.238v-3.654c0-4.176 3.48-7.482 7.656-7.482z m-6.962 59.34v-30.802c-11.136 1.044-16.706 6.962-16.706 14.618 0 7.31 3.308 11.834 16.706 16.184z m13.748 24.19v31.672c11.136-1.218 17.228-6.786 17.228-15.14 0-7.658-3.828-12.356-17.228-16.532zM614.738 351.442h-145.33a9.45 9.45 0 0 1 0-18.896h145.33a9.45 9.45 0 0 1 0 18.896zM614.738 429.994h-145.33a9.45 9.45 0 0 1 0-18.896h145.33a9.45 9.45 0 0 1 0 18.896zM614.738 508.548h-145.33a9.45 9.45 0 0 1 0-18.896h145.33a9.45 9.45 0 0 1 0 18.896zM614.738 587.102H356.508a9.45 9.45 0 0 1 0-18.896h258.23a9.45 9.45 0 0 1 0 18.896zM614.738 665.656H356.508a9.45 9.45 0 0 1 0-18.896h258.23a9.45 9.45 0 0 1 0 18.896zM614.738 744.21H356.508a9.45 9.45 0 0 1 0-18.896h258.23a9.45 9.45 0 0 1 0 18.896z" fill="#4C4372" p-id="18707"></path></svg>