<?xml version="1.0" standalone="no"?><!DOCTYPE svg PUBLIC "-//W3C//DTD SVG 1.1//EN" "http://www.w3.org/Graphics/SVG/1.1/DTD/svg11.dtd"><svg t="1760364277250" class="icon" viewBox="0 0 1024 1024" version="1.1" xmlns="http://www.w3.org/2000/svg" p-id="6757" xmlns:xlink="http://www.w3.org/1999/xlink" width="32" height="32"><path d="M880.64 90.45504H155.30496c-45.69088-1.4336-83.89632 34.44224-85.33504 80.13312v522.32192c1.39264 45.69088 39.56224 81.60256 85.25312 80.20992H880.64c45.69088 1.4336 83.89632-34.44224 85.32992-80.13312V170.67008c-1.38752-45.696-39.56224-81.60768-85.248-80.21504H880.64z" fill="#2394FB" p-id="6758"></path><path d="M351.14496 525.64992L279.04 598.19008 112.64 431.78496l166.4-166.4L351.57504 337.92 257.70496 431.78496zM502.19008 687.79008H396.37504L533.76 175.78496H640zM758.19008 597.76l-72.54016-72.52992L778.24 431.78496 684.36992 337.92l72.54016-72.53504 166.4 166.4z" fill="#FFB600" p-id="6759"></path><path d="M136.11008 874.65984H861.44V960H136.11008z" fill="#2394FB" p-id="6760"></path></svg>