<?xml version="1.0" standalone="no"?><!DOCTYPE svg PUBLIC "-//W3C//DTD SVG 1.1//EN" "http://www.w3.org/Graphics/SVG/1.1/DTD/svg11.dtd"><svg t="1767370380192" class="icon" viewBox="0 0 1024 1024" version="1.1" xmlns="http://www.w3.org/2000/svg" p-id="7297" xmlns:xlink="http://www.w3.org/1999/xlink" width="200" height="200"><path d="M405.12 628.8c-53.76 32-61.76-18.24-61.76-18.24l-67.52-170.88c-25.92-80.96 22.4-36.48 22.4-36.48s41.6 33.92 73.28 54.72a78.4 78.4 0 0 0 67.52 6.08l441.28-220.8A456.96 456.96 0 0 0 512 62.08c-248.64 0-449.92 192-449.92 426.56a417.92 417.92 0 0 0 170.56 334.4l-18.88 116.8s-9.28 33.92 22.4 18.24a1299.84 1299.84 0 0 0 109.44-72.96 470.4 470.4 0 0 0 166.4 30.08c248.64 0 449.92-192 449.92-426.56a406.4 406.4 0 0 0-47.04-189.76C774.4 390.4 448 603.2 405.12 628.8z" fill="#2ac307" p-id="7298"></path></svg>